<svg width="45" height="46" viewBox="0 0 45 46" fill="none" xmlns="http://www.w3.org/2000/svg">
<rect y="0.530273" width="45" height="45" rx="12" fill="#1A1D25"/>
<path d="M11.155 31.8448C10.4239 31.4805 9.26922 32.0282 8.57547 32.1403C7.79934 32.1403 7.02027 30.7642 6.82221 30.0904L6.81839 30.0775C6.61517 29.3863 5.91503 27.0051 6.82221 26.7279C7.73629 26.4486 8.84669 26.1469 8.80468 25.6915C8.70831 24.6462 8.76836 23.1209 8.57547 22.867C8.38271 22.6131 8.16575 22.0758 7.49069 22.0519C6.81564 22.0278 5 22.0278 5 20.5414C5 19.3524 5.18188 18.4158 5.27276 18.0961C5.39832 17.9762 5.71813 16.9153 6.39689 16.9728C7.24526 17.0447 9.13502 17.9293 9.90645 16.6693C10.5235 15.6613 10.938 15.3586 11.155 15.0034C11.2594 14.7557 11.3141 14.1212 10.697 13.565C9.92559 12.8697 8.93719 11.4552 10.1425 10.4723C11.3479 9.48935 12.2157 8.79411 13.2041 9.6332C14.1925 10.4723 14.0719 11.7429 15.5908 11.2395C16.8056 10.8367 17.7685 10.5602 18.098 10.4723C18.2184 10.2725 18.4451 9.65238 18.3872 8.77014C18.3149 7.66732 17.8086 6.44464 18.098 6.2049C18.3872 5.96516 21.0389 5.48567 21.497 5.53362C21.955 5.58157 22.4131 6.22887 22.4372 7.16386C22.4614 8.09886 22.5577 8.31462 23.3292 8.62629C24.1006 8.93794 26.8729 10.0168 27.2345 9.82499C27.5961 9.6332 27.9095 8.88999 28.0059 8.62629C28.1025 8.36256 29.0426 6.94809 30.8507 7.78719C32.6586 8.62629 32.6586 9.36949 32.4176 9.82499C32.2247 10.1894 31.6462 11.5272 31.381 12.1505C32.1043 12.7418 33.6664 14.1404 34.1292 15.0034C34.1373 15.0993 34.3606 15.2096 35.1899 14.8835C36.2266 14.476 37.239 14.2123 37.7454 15.0034C38.2516 15.7945 39.1195 17.0652 38.9265 17.329C38.7338 17.5926 38.9988 17.4968 38.1551 18.0961C37.6137 18.4807 36.973 18.6184 36.6026 18.9402C36.3956 19.12 36.273 19.357 36.2988 19.7264C36.3712 20.7572 36.6847 22.7951 36.8051 23.0587C36.9256 23.3225 39.7945 23.9219 39.9632 24.5931C40.1319 25.2644 39.7463 28.0213 38.2756 28.4051C38.0828 28.3331 37.5574 28.1556 36.998 28.0213C36.2988 27.8536 35.4311 28.0213 35.1899 28.7166C34.9971 29.2728 34.2096 30.4347 33.8399 30.9463C33.7595 31.202 33.7049 31.7902 34.1292 32.097C34.6596 32.4806 35.5515 33.919 35.5756 34.1108C35.5998 34.3026 35.8167 34.7102 35.1899 35.2136C34.6886 35.6164 34.0811 36.1965 33.8399 36.4363C33.647 36.62 33.0927 36.8104 32.4176 36.1007C31.5739 35.2136 30.2962 34.9019 29.0667 35.2136C27.8373 35.5253 26.8971 35.7651 26.9211 36.8199C26.9405 37.6639 26.9292 39.2014 26.9211 39.8646C26.8489 40.0405 26.5837 40.4113 26.1015 40.4879C25.6193 40.5647 23.956 40.5199 23.1846 40.4879C22.9113 40.4879 22.3794 40.2578 22.4372 39.3373C22.5095 38.1864 22.4372 37.0836 20.6292 36.8199C19.1828 36.6089 18.805 36.4763 18.797 36.4363C18.5479 36.3963 17.958 36.5561 17.5916 37.5152C17.1336 38.7139 16.555 39.1454 15.3256 39.0734C14.342 39.0159 12.8005 38.1367 12.2782 37.8808C12.0291 37.6732 11.6803 37.0706 12.2782 36.3226C13.0255 35.3876 13.5318 34.3327 12.905 33.3977L11.155 31.8448Z" stroke="white" stroke-width="0.5"/>
<path d="M11.4692 22.2586H11.8287C11.8171 22.3948 11.7789 22.5164 11.7137 22.6232C11.6484 22.7289 11.5569 22.8122 11.4392 22.8733C11.3213 22.9343 11.1779 22.9647 11.0093 22.9647C10.8799 22.9647 10.7635 22.9419 10.66 22.8961C10.5565 22.8495 10.4679 22.7836 10.3941 22.6988C10.3203 22.6131 10.2638 22.5097 10.2245 22.3886C10.1861 22.2676 10.167 22.1323 10.167 21.9826V21.8096C10.167 21.66 10.1866 21.5248 10.2259 21.4036C10.2661 21.2826 10.3237 21.1793 10.3984 21.0934C10.4732 21.0068 10.5628 20.9405 10.6672 20.8948C10.7726 20.8491 10.891 20.8262 11.0223 20.8262C11.1889 20.8262 11.3299 20.8566 11.4448 20.9177C11.5599 20.9787 11.6489 21.063 11.7122 21.1706C11.7764 21.2783 11.8157 21.4018 11.8301 21.541H11.4708C11.4612 21.4513 11.4401 21.3746 11.4074 21.3107C11.3758 21.2468 11.329 21.1984 11.2666 21.1649C11.2043 21.1307 11.1229 21.1134 11.0223 21.1134C10.9398 21.1134 10.8679 21.1287 10.8066 21.1593C10.7453 21.1897 10.694 21.2345 10.6527 21.2936C10.6117 21.3527 10.5804 21.4256 10.5594 21.5122C10.5392 21.5981 10.5292 21.6962 10.5292 21.8069V21.9826C10.5292 22.0875 10.5383 22.1828 10.5565 22.2685C10.5757 22.3534 10.6044 22.4262 10.6428 22.4873C10.6821 22.5483 10.7318 22.5953 10.7923 22.6288C10.8527 22.6622 10.925 22.6789 11.0093 22.6789C11.1119 22.6789 11.1947 22.6626 11.258 22.6302C11.3222 22.5978 11.3706 22.5508 11.4032 22.4887C11.4367 22.4258 11.4587 22.349 11.4692 22.2586ZM12.9714 21.1321L12.3462 22.9361H11.968L12.7559 20.8547H12.9973L12.9714 21.1321ZM13.4947 22.9361L12.868 21.1321L12.8406 20.8547H13.0835L13.8742 22.9361H13.4947ZM13.4645 22.1643V22.4486H12.3261V22.1643H13.4645ZM14.3831 20.8547L14.8273 21.6139L15.2714 20.8547H15.6869L15.0544 21.8855L15.7026 22.9361H15.2829L14.8273 22.1627L14.3716 22.9361H13.9503L14.6001 21.8855L13.9662 20.8547H14.3831ZM16.7836 21.1321L16.1583 22.9361H15.7803L16.568 20.8547H16.8095L16.7836 21.1321ZM17.3068 22.9361L16.6801 21.1321L16.6527 20.8547H16.8956L17.6863 22.9361H17.3068ZM17.2766 22.1643V22.4486H16.1382V22.1643H17.2766ZM19.1338 22.2586H19.4932C19.4817 22.3948 19.4435 22.5164 19.3782 22.6232C19.3131 22.7289 19.2215 22.8122 19.1036 22.8733C18.9859 22.9343 18.8425 22.9647 18.6739 22.9647C18.5445 22.9647 18.4281 22.9419 18.3247 22.8961C18.2211 22.8495 18.1324 22.7836 18.0587 22.6988C17.9848 22.6131 17.9284 22.5097 17.8891 22.3886C17.8506 22.2676 17.8315 22.1323 17.8315 21.9826V21.8096C17.8315 21.66 17.8512 21.5248 17.8904 21.4036C17.9307 21.2826 17.9883 21.1793 18.063 21.0934C18.1377 21.0068 18.2274 20.9405 18.3318 20.8948C18.4371 20.8491 18.5556 20.8262 18.6869 20.8262C18.8535 20.8262 18.9944 20.8566 19.1094 20.9177C19.2245 20.9787 19.3136 21.063 19.3767 21.1706C19.441 21.2783 19.4803 21.4018 19.4947 21.541H19.1353C19.1258 21.4513 19.1046 21.3746 19.072 21.3107C19.0404 21.2468 18.9935 21.1984 18.9312 21.1649C18.8689 21.1307 18.7875 21.1134 18.6869 21.1134C18.6045 21.1134 18.5325 21.1287 18.4712 21.1593C18.4099 21.1897 18.3586 21.2345 18.3174 21.2936C18.2761 21.3527 18.245 21.4256 18.224 21.5122C18.2038 21.5981 18.1938 21.6962 18.1938 21.8069V21.9826C18.1938 22.0875 18.203 22.1828 18.2211 22.2685C18.2403 22.3534 18.269 22.4262 18.3073 22.4873C18.3467 22.5483 18.3964 22.5953 18.4568 22.6288C18.5171 22.6622 18.5896 22.6789 18.6739 22.6789C18.7764 22.6789 18.8593 22.6626 18.9225 22.6302C18.9868 22.5978 19.0351 22.5508 19.0678 22.4887C19.1013 22.4258 19.1234 22.349 19.1338 22.2586ZM21.4769 20.8547V22.9361H21.1175V21.1407H20.1875V22.9361H19.8282V20.8547H21.4769ZM23.281 22.6516V22.9361H22.1698V22.6516H23.281ZM22.2719 20.8547V22.9361H21.9112V20.8547H22.2719ZM23.1358 21.7239V22.0042H22.1698V21.7239H23.1358ZM23.2738 20.8547V21.1407H22.1698V20.8547H23.2738ZM25.4746 22.6489L25.4472 23.4379H25.1151V22.9361H24.9283V22.6489H25.4746ZM23.5671 22.9361V20.8547H23.9292V22.6516H24.8564V20.8547H25.2187V22.9361H23.5671ZM26.59 20.8547V22.9361H26.2321V20.8547H26.59ZM27.247 20.8547V21.1407H25.5809V20.8547H27.247ZM28.3179 22.1599H27.773V21.8755H28.3179C28.4128 21.8755 28.4894 21.8602 28.5479 21.8297C28.6062 21.7992 28.6489 21.7573 28.6758 21.7038C28.7035 21.6496 28.7175 21.5876 28.7175 21.518C28.7175 21.4524 28.7035 21.3908 28.6758 21.3337C28.6489 21.2755 28.6062 21.2288 28.5479 21.1935C28.4894 21.1582 28.4128 21.1407 28.3179 21.1407H27.8837V22.9361H27.5229V20.8547H28.3179C28.4798 20.8547 28.6173 20.8833 28.7304 20.9404C28.8444 20.9967 28.9312 21.0749 28.9907 21.175C29.05 21.2741 29.0797 21.3876 29.0797 21.5152C29.0797 21.6497 29.05 21.7649 28.9907 21.8612C28.9312 21.9574 28.8444 22.0312 28.7304 22.0827C28.6173 22.1342 28.4798 22.1599 28.3179 22.1599ZM29.9997 21.1321L29.3744 22.9361H28.9964L29.7841 20.8547H30.0256L29.9997 21.1321ZM30.5229 22.9361L29.8962 21.1321L29.8688 20.8547H30.1117L30.9024 22.9361H30.5229ZM30.4926 22.1643V22.4486H29.3542V22.1643H30.4926ZM32.5195 21.7239V22.0084H31.4084V21.7239H32.5195ZM31.4976 20.8547V22.9361H31.1368V20.8547H31.4976ZM32.797 20.8547V22.9361H32.4376V20.8547H32.797ZM34.463 22.2586H34.8224C34.8109 22.3948 34.7726 22.5164 34.7074 22.6232C34.6423 22.7289 34.5507 22.8122 34.4328 22.8733C34.315 22.9343 34.1717 22.9647 34.003 22.9647C33.8736 22.9647 33.7572 22.9419 33.6537 22.8961C33.5503 22.8495 33.4616 22.7836 33.3879 22.6988C33.314 22.6131 33.2574 22.5097 33.2182 22.3886C33.1798 22.2676 33.1607 22.1323 33.1607 21.9826V21.8096C33.1607 21.66 33.1804 21.5248 33.2196 21.4036C33.2598 21.2826 33.3173 21.1793 33.3921 21.0934C33.4668 21.0068 33.5564 20.9405 33.6609 20.8948C33.7663 20.8491 33.8848 20.8262 34.016 20.8262C34.1827 20.8262 34.3236 20.8566 34.4386 20.9177C34.5536 20.9787 34.6428 21.063 34.7059 21.1706C34.7702 21.2783 34.8095 21.4018 34.8239 21.541H34.4645C34.4548 21.4513 34.4338 21.3746 34.4012 21.3107C34.3696 21.2468 34.3227 21.1984 34.2603 21.1649C34.1981 21.1307 34.1166 21.1134 34.016 21.1134C33.9335 21.1134 33.8617 21.1287 33.8004 21.1593C33.7391 21.1897 33.6878 21.2345 33.6466 21.2936C33.6053 21.3527 33.5742 21.4256 33.5531 21.5122C33.533 21.5981 33.5229 21.6962 33.5229 21.8069V21.9826C33.5229 22.0875 33.532 22.1828 33.5503 22.2685C33.5693 22.3534 33.5982 22.4262 33.6364 22.4873C33.6757 22.5483 33.7256 22.5953 33.7859 22.6288C33.8463 22.6622 33.9187 22.6789 34.003 22.6789C34.1055 22.6789 34.1884 22.6626 34.2517 22.6302C34.316 22.5978 34.3643 22.5508 34.3969 22.4887C34.4304 22.4258 34.4525 22.349 34.463 22.2586Z" fill="white"/>
<path d="M10.9472 24.8622V24.9278C10.9472 25.0059 10.9373 25.0759 10.9177 25.138C10.898 25.1999 10.8697 25.2525 10.8329 25.296C10.796 25.3394 10.7516 25.3724 10.6999 25.3953C10.6487 25.4182 10.5911 25.4295 10.5273 25.4295C10.4657 25.4295 10.4088 25.4182 10.3571 25.3953C10.3058 25.3724 10.2612 25.3394 10.2234 25.296C10.186 25.2525 10.1571 25.1999 10.1364 25.138C10.1158 25.0759 10.1055 25.0059 10.1055 24.9278V24.8622C10.1055 24.7839 10.1156 24.7141 10.1357 24.6526C10.1563 24.5908 10.1853 24.538 10.2227 24.4946C10.2601 24.4508 10.3044 24.4175 10.3556 24.3946C10.4074 24.3718 10.4641 24.3604 10.5259 24.3604C10.5897 24.3604 10.6472 24.3718 10.6985 24.3946C10.7502 24.4175 10.7945 24.4508 10.8315 24.4946C10.8688 24.538 10.8973 24.5908 10.917 24.6526C10.9371 24.7141 10.9472 24.7839 10.9472 24.8622ZM10.8098 24.9278V24.8606C10.8098 24.7987 10.8034 24.7439 10.7905 24.6962C10.778 24.6487 10.7595 24.6085 10.7351 24.5763C10.7106 24.5437 10.6807 24.5192 10.6452 24.5026C10.6103 24.4858 10.5705 24.4776 10.5259 24.4776C10.4828 24.4776 10.4438 24.4858 10.4088 24.5026C10.3743 24.5192 10.3446 24.5437 10.3197 24.5763C10.2953 24.6085 10.2763 24.6487 10.2629 24.6962C10.2495 24.7439 10.2428 24.7987 10.2428 24.8606V24.9278C10.2428 24.9903 10.2495 25.0455 10.2629 25.0937C10.2763 25.1413 10.2955 25.1816 10.3204 25.2145C10.3458 25.2469 10.3758 25.2714 10.4102 25.288C10.4452 25.3047 10.4843 25.3131 10.5273 25.3131C10.5724 25.3131 10.6125 25.3047 10.6474 25.288C10.6824 25.2714 10.7119 25.2469 10.7358 25.2145C10.7603 25.1816 10.7787 25.1413 10.7911 25.0937C10.8037 25.0455 10.8098 24.9903 10.8098 24.9278ZM11.7931 24.3746V24.4875H11.2885V25.4153H11.1506V24.3746H11.7931ZM11.2562 24.7985H11.5416C11.6181 24.7985 11.6829 24.8113 11.7356 24.8371C11.7882 24.8624 11.8283 24.8977 11.8556 24.9436C11.883 24.9893 11.8965 25.0429 11.8965 25.1043C11.8965 25.1502 11.889 25.1921 11.8736 25.2303C11.8583 25.2678 11.8355 25.3008 11.8053 25.3288C11.7751 25.3565 11.7379 25.3779 11.6939 25.3932C11.6499 25.408 11.5991 25.4153 11.5416 25.4153H11.1506V24.3746H11.2893V25.303H11.5416C11.5928 25.303 11.6343 25.2938 11.6659 25.2752C11.698 25.2563 11.7214 25.2314 11.7363 25.2009C11.7511 25.1704 11.7586 25.1377 11.7586 25.103C11.7586 25.0682 11.7511 25.0362 11.7363 25.0072C11.7214 24.9781 11.698 24.9551 11.6659 24.9378C11.6343 24.9202 11.5928 24.9114 11.5416 24.9114H11.2562V24.7985ZM12.7152 25.0843H12.8532C12.846 25.1502 12.8271 25.209 12.7965 25.261C12.7658 25.3128 12.7224 25.3541 12.6663 25.3846C12.6102 25.4145 12.5404 25.4295 12.4565 25.4295C12.3952 25.4295 12.3393 25.4182 12.289 25.3953C12.2392 25.3724 12.1963 25.34 12.1603 25.2981C12.1244 25.2557 12.0966 25.2049 12.077 25.1458C12.0578 25.0863 12.0482 25.0201 12.0482 24.9471V24.8435C12.0482 24.7706 12.0578 24.7046 12.077 24.6455C12.0966 24.5859 12.1246 24.535 12.1611 24.4926C12.198 24.4501 12.2422 24.4175 12.2941 24.3946C12.3458 24.3718 12.404 24.3604 12.4687 24.3604C12.5478 24.3604 12.6146 24.3752 12.6693 24.4047C12.7239 24.4342 12.7663 24.4751 12.7965 24.5276C12.8271 24.5795 12.846 24.6398 12.8532 24.7084H12.7152C12.7085 24.6599 12.696 24.6181 12.6778 24.5833C12.6597 24.5481 12.6338 24.5209 12.6003 24.5019C12.5667 24.4828 12.5228 24.4733 12.4687 24.4733C12.4222 24.4733 12.3813 24.4821 12.3458 24.4997C12.3109 24.5173 12.2813 24.5424 12.2574 24.5747C12.2339 24.6071 12.2161 24.646 12.2042 24.6913C12.1922 24.7365 12.1862 24.7868 12.1862 24.842V24.9471C12.1862 24.9981 12.1916 25.046 12.2021 25.0908C12.2131 25.1355 12.2296 25.1749 12.2516 25.2087C12.2737 25.2426 12.3018 25.2692 12.3357 25.2888C12.3697 25.3079 12.4101 25.3174 12.4565 25.3174C12.5154 25.3174 12.5624 25.3081 12.5973 25.2896C12.6324 25.271 12.6586 25.2442 12.6764 25.2095C12.6946 25.1746 12.7075 25.133 12.7152 25.0843ZM13.715 24.3746V24.4875H13.2363V24.3746H13.715ZM13.8343 24.3746V25.4153H13.6955V24.3746H13.8343ZM13.1889 24.3746H13.3269L13.3031 24.8843C13.2998 24.9576 13.294 25.0231 13.2859 25.0808C13.2783 25.138 13.2672 25.1878 13.2528 25.2303C13.2385 25.2721 13.2198 25.3068 13.1967 25.3345C13.1738 25.3617 13.1455 25.382 13.112 25.3953C13.079 25.4086 13.0392 25.4153 12.9927 25.4153H12.9553V25.303L12.984 25.3009C13.0109 25.299 13.0339 25.2931 13.053 25.2831C13.0727 25.2726 13.0892 25.2568 13.1026 25.2359C13.1165 25.215 13.1277 25.1878 13.1364 25.1543C13.145 25.121 13.1518 25.0803 13.1565 25.0322C13.1618 24.9836 13.1659 24.9269 13.1687 24.8622L13.1889 24.3746ZM14.4086 25.0701L14.6853 24.3746H14.8448L14.4746 25.2416C14.4641 25.2659 14.4524 25.2896 14.4395 25.3123C14.4265 25.3348 14.4108 25.3548 14.3921 25.3724C14.3734 25.3899 14.3501 25.4042 14.3223 25.4145C14.2949 25.4251 14.261 25.4303 14.2203 25.4303C14.2088 25.4303 14.1951 25.4295 14.1792 25.4282C14.1635 25.4272 14.1531 25.426 14.1484 25.4246L14.1527 25.3145C14.158 25.3156 14.1682 25.3164 14.1836 25.3174C14.1989 25.3178 14.2102 25.3181 14.2174 25.3181C14.2446 25.3181 14.2663 25.3126 14.282 25.3016C14.2979 25.2907 14.3106 25.2768 14.3202 25.2602C14.3303 25.2431 14.3393 25.2257 14.3474 25.2079L14.4086 25.0701ZM14.1736 24.3746L14.4647 25.0229L14.4991 25.1508L14.3827 25.1594L14.0183 24.3746H14.1736ZM15.3098 24.94L14.9361 24.3746H15.0985L15.3766 24.8256H15.5736L15.5514 24.94H15.3098ZM15.3846 24.9293L15.0806 25.4153H14.908L15.2969 24.8106L15.3846 24.9293ZM15.6333 24.3746V25.4153H15.4961V24.3746H15.6333ZM16.1881 24.3746L15.813 24.94H15.5787L15.5571 24.8256H15.7468L16.0249 24.3746H16.1881ZM16.043 25.4153L15.7396 24.9293L15.8281 24.8106L16.2154 25.4153H16.043ZM16.4915 25.1765L17.0068 24.3746H17.1456V25.4153H17.0068V24.6126L16.4915 25.4153H16.3535V24.3746H16.4915V25.1765ZM17.7708 24.9286H17.5056L17.5042 24.8179H17.745C17.7847 24.8179 17.8195 24.8111 17.8492 24.7977C17.8788 24.7843 17.9019 24.7654 17.9181 24.7405C17.9349 24.7153 17.9433 24.6854 17.9433 24.6506C17.9433 24.6123 17.9358 24.5815 17.921 24.5576C17.9066 24.5333 17.8843 24.5156 17.8542 24.5047C17.8244 24.4933 17.7866 24.4875 17.7406 24.4875H17.5364V25.4153H17.3977V24.3746H17.7406C17.7943 24.3746 17.8423 24.3801 17.8843 24.391C17.9265 24.4016 17.9622 24.4183 17.9915 24.441C18.0212 24.4635 18.0437 24.4921 18.059 24.5269C18.0743 24.5616 18.082 24.6033 18.082 24.6519C18.082 24.6949 18.071 24.7337 18.0489 24.7685C18.0269 24.8028 17.9962 24.8308 17.957 24.8529C17.9181 24.8747 17.8726 24.8887 17.8204 24.895L17.7708 24.9286ZM17.7643 25.4153H17.451L17.5293 25.303H17.7643C17.8084 25.303 17.8458 25.2955 17.8765 25.2803C17.9077 25.265 17.9313 25.2435 17.9476 25.2159C17.9639 25.1877 17.972 25.1546 17.972 25.1166C17.972 25.0779 17.9652 25.0446 17.9512 25.0165C17.9374 24.9884 17.9155 24.9666 17.8858 24.9514C17.8561 24.9362 17.8178 24.9286 17.7708 24.9286H17.5732L17.5746 24.8179H17.8448L17.8743 24.8578C17.9245 24.8622 17.9673 24.8764 18.0022 24.9007C18.0372 24.9245 18.0638 24.9551 18.082 24.9922C18.1007 25.0294 18.11 25.0703 18.11 25.115C18.11 25.18 18.0957 25.2347 18.0669 25.2795C18.0386 25.3238 17.9987 25.3577 17.9469 25.3809C17.8951 25.4039 17.8343 25.4153 17.7643 25.4153ZM18.7022 24.4668L18.3559 25.4153H18.2142L18.6131 24.3746H18.7044L18.7022 24.4668ZM18.9927 25.4153L18.6456 24.4668L18.6434 24.3746H18.7347L19.1349 25.4153H18.9927ZM18.9746 25.0301V25.143H18.3868V25.0301H18.9746ZM19.4239 24.3746V25.4153H19.2852V24.3746H19.4239ZM19.6639 24.8513V24.96H19.4152V24.8513H19.6639ZM20.415 24.8622V24.9278C20.415 25.0059 20.4052 25.0759 20.3855 25.138C20.3659 25.1999 20.3376 25.2525 20.3007 25.296C20.2638 25.3394 20.2196 25.3724 20.1678 25.3953C20.1165 25.4182 20.059 25.4295 19.9953 25.4295C19.9335 25.4295 19.8766 25.4182 19.825 25.3953C19.7737 25.3724 19.7291 25.3394 19.6913 25.296C19.6539 25.2525 19.6249 25.1999 19.6043 25.138C19.5836 25.0759 19.5735 25.0059 19.5735 24.9278V24.8622C19.5735 24.7839 19.5834 24.7141 19.6036 24.6526C19.6242 24.5908 19.6532 24.538 19.6905 24.4946C19.7279 24.4508 19.7722 24.4175 19.8235 24.3946C19.8752 24.3718 19.9321 24.3604 19.9939 24.3604C20.0576 24.3604 20.1151 24.3718 20.1663 24.3946C20.2181 24.4175 20.2624 24.4508 20.2993 24.4946C20.3367 24.538 20.3652 24.5908 20.3848 24.6526C20.4051 24.7141 20.415 24.7839 20.415 24.8622ZM20.2778 24.9278V24.8606C20.2778 24.7987 20.2712 24.7439 20.2583 24.6962C20.2459 24.6487 20.2275 24.6085 20.203 24.5763C20.1786 24.5437 20.1486 24.5192 20.1131 24.5026C20.0782 24.4858 20.0384 24.4776 19.9939 24.4776C19.9507 24.4776 19.9117 24.4858 19.8766 24.5026C19.8422 24.5192 19.8125 24.5437 19.7875 24.5763C19.7631 24.6085 19.7442 24.6487 19.7308 24.6962C19.7174 24.7439 19.7106 24.7987 19.7106 24.8606V24.9278C19.7106 24.9903 19.7174 25.0455 19.7308 25.0937C19.7442 25.1413 19.7634 25.1816 19.7883 25.2145C19.8136 25.2469 19.8436 25.2714 19.8782 25.288C19.9131 25.3047 19.9522 25.3131 19.9953 25.3131C20.0403 25.3131 20.0803 25.3047 20.1153 25.288C20.1503 25.2714 20.1798 25.2469 20.2037 25.2145C20.2281 25.1816 20.2466 25.1413 20.2591 25.0937C20.2715 25.0455 20.2778 24.9903 20.2778 24.9278ZM21.8353 25.3066L21.8224 25.6662H21.703V25.4153H21.6017V25.3066H21.8353ZM20.5968 24.3746H20.7363V25.303H21.0957V24.3746H21.2337V25.303H21.5909V24.3746H21.7295V25.4153H20.5968V24.3746ZM22.4167 24.4668L22.0702 25.4153H21.9287L22.3275 24.3746H22.4188L22.4167 24.4668ZM22.7071 25.4153L22.3599 24.4668L22.3577 24.3746H22.449L22.8494 25.4153H22.7071ZM22.6891 25.0301V25.143H22.1013V25.0301H22.6891ZM23.5702 25.0101H23.2762L23.208 24.9821C23.1323 24.9583 23.0741 24.9218 23.0334 24.8728C22.9926 24.8233 22.9723 24.7618 22.9723 24.6884C22.9723 24.6212 22.9871 24.5642 23.0168 24.5176C23.047 24.4708 23.0897 24.4353 23.1448 24.411C23.2003 24.3868 23.266 24.3746 23.3417 24.3746H23.6767V25.4153H23.5379V24.4875H23.3417C23.265 24.4875 23.2072 24.5057 23.1685 24.5419C23.1302 24.5781 23.111 24.6268 23.111 24.6884C23.111 24.7285 23.1193 24.7642 23.1361 24.7955C23.1533 24.8271 23.1789 24.8518 23.2124 24.8699C23.2459 24.8881 23.2875 24.8972 23.3374 24.8972H23.571L23.5702 25.0101ZM23.3345 24.9385L23.0801 25.4153H22.9327L23.1943 24.9385H23.3345ZM25.0975 24.8622V24.9278C25.0975 25.0059 25.0877 25.0759 25.068 25.138C25.0485 25.1999 25.0202 25.2525 24.9834 25.296C24.9463 25.3394 24.9021 25.3724 24.8503 25.3953C24.799 25.4182 24.7415 25.4295 24.6778 25.4295C24.616 25.4295 24.5593 25.4182 24.5075 25.3953C24.4562 25.3724 24.4117 25.3394 24.3738 25.296C24.3365 25.2525 24.3074 25.1999 24.2868 25.138C24.2663 25.0759 24.256 25.0059 24.256 24.9278V24.8622C24.256 24.7839 24.266 24.7141 24.2861 24.6526C24.3067 24.5908 24.3357 24.538 24.373 24.4946C24.4104 24.4508 24.4548 24.4175 24.5061 24.3946C24.5577 24.3718 24.6146 24.3604 24.6764 24.3604C24.7401 24.3604 24.7976 24.3718 24.849 24.3946C24.9007 24.4175 24.9449 24.4508 24.9818 24.4946C25.0192 24.538 25.0477 24.5908 25.0674 24.6526C25.0876 24.7141 25.0975 24.7839 25.0975 24.8622ZM24.9603 24.9278V24.8606C24.9603 24.7987 24.9538 24.7439 24.9408 24.6962C24.9284 24.6487 24.91 24.6085 24.8855 24.5763C24.8611 24.5437 24.8311 24.5192 24.7957 24.5026C24.7607 24.4858 24.7209 24.4776 24.6764 24.4776C24.6333 24.4776 24.5942 24.4858 24.5593 24.5026C24.5247 24.5192 24.495 24.5437 24.4701 24.5763C24.4457 24.6085 24.4268 24.6487 24.4133 24.6962C24.3999 24.7439 24.3932 24.7987 24.3932 24.8606V24.9278C24.3932 24.9903 24.3999 25.0455 24.4133 25.0937C24.4268 25.1413 24.4459 25.1816 24.4708 25.2145C24.4962 25.2469 24.5261 25.2714 24.5607 25.288C24.5957 25.3047 24.6347 25.3131 24.6778 25.3131C24.7229 25.3131 24.7629 25.3047 24.7979 25.288C24.8328 25.2714 24.8623 25.2469 24.8863 25.2145C24.9107 25.1816 24.9292 25.1413 24.9416 25.0937C24.954 25.0455 24.9603 24.9903 24.9603 24.9278ZM25.6913 25.0072H25.4116V24.895H25.6913C25.7454 24.895 25.7893 24.8865 25.8228 24.8692C25.8563 24.8521 25.8807 24.8282 25.8961 24.7977C25.912 24.7673 25.9197 24.7324 25.9197 24.6933C25.9197 24.6577 25.912 24.6241 25.8961 24.5926C25.8807 24.5612 25.8563 24.5359 25.8228 24.5169C25.7893 24.4973 25.7454 24.4875 25.6913 24.4875H25.444V25.4153H25.3053V24.3746H25.6913C25.7702 24.3746 25.8373 24.3882 25.8918 24.4153C25.9464 24.4426 25.9878 24.4801 26.0161 24.5282C26.0444 24.576 26.0585 24.6305 26.0585 24.6919C26.0585 24.7587 26.0444 24.8157 26.0161 24.8627C25.9878 24.91 25.9464 24.946 25.8918 24.9707C25.8373 24.995 25.7702 25.0072 25.6913 25.0072ZM26.8829 24.3746V24.4875H26.3784V25.4153H26.2404V24.3746H26.8829ZM27.3013 24.4668L26.9548 25.4153H26.8132L27.212 24.3746H27.3034L27.3013 24.4668ZM27.5915 25.4153L27.2444 24.4668L27.2422 24.3746H27.3335L27.7338 25.4153H27.5915ZM27.5736 25.0301V25.143H26.9857V25.0301H27.5736ZM28.5575 24.822V24.9343H27.9911V24.822H28.5575ZM28.0127 24.3746V25.4153H27.8741V24.3746H28.0127ZM28.6784 24.3746V25.4153H28.5403V24.3746H28.6784ZM29.0692 25.1765L29.5846 24.3746H29.7233V25.4153H29.5846V24.6126L29.0692 25.4153H28.9313V24.3746H29.0692V25.1765ZM30.2961 24.9157H30.1719V24.8278H30.2911C30.3438 24.8278 30.3865 24.8204 30.4191 24.8056C30.4516 24.7908 30.4754 24.7703 30.4903 24.7442C30.5052 24.7179 30.5126 24.6877 30.5126 24.6534C30.5126 24.6206 30.5044 24.5905 30.4881 24.5633C30.4718 24.5356 30.4466 24.5137 30.4126 24.4976C30.3785 24.4809 30.3348 24.4725 30.2812 24.4725C30.2408 24.4725 30.2045 24.4801 30.1719 24.4954C30.1392 24.5102 30.1133 24.5309 30.0943 24.5576C30.0751 24.5837 30.0654 24.614 30.0654 24.6484H29.9268C29.9268 24.6041 29.936 24.5642 29.9547 24.529C29.9735 24.4933 29.999 24.463 30.0317 24.4383C30.0643 24.4129 30.1018 24.3937 30.1446 24.3803C30.1877 24.3669 30.2332 24.3604 30.2812 24.3604C30.3372 24.3604 30.3879 24.3667 30.4334 24.3796C30.479 24.392 30.5181 24.4106 30.5506 24.4353C30.5832 24.4601 30.6081 24.4908 30.6253 24.5276C30.6426 24.5642 30.6512 24.6069 30.6512 24.6556C30.6512 24.6913 30.6428 24.7249 30.6261 24.7563C30.6093 24.7878 30.5854 24.8154 30.5541 24.8392C30.523 24.863 30.4856 24.8819 30.442 24.8957C30.3985 24.909 30.3498 24.9157 30.2961 24.9157ZM30.1719 24.855H30.2961C30.3552 24.855 30.4076 24.8609 30.4535 24.8728C30.4996 24.8846 30.5384 24.9021 30.57 24.925C30.6016 24.9478 30.6256 24.9761 30.6419 25.0101C30.6586 25.0434 30.6671 25.0817 30.6671 25.1251C30.6671 25.1737 30.6574 25.2169 30.6382 25.2544C30.6196 25.2921 30.5931 25.3241 30.5585 25.3503C30.524 25.3765 30.483 25.3962 30.4356 25.4095C30.3887 25.423 30.3372 25.4295 30.2812 25.4295C30.2361 25.4295 30.1916 25.4239 30.1474 25.4124C30.1038 25.4005 30.0643 25.3825 30.0289 25.3582C29.9934 25.3334 29.9649 25.3019 29.9432 25.2637C29.9222 25.2257 29.9116 25.18 29.9116 25.1265H30.0503C30.0503 25.1614 30.06 25.1932 30.0791 25.2223C30.0987 25.2514 30.1258 25.2748 30.1603 25.2923C30.1949 25.3096 30.235 25.3181 30.2812 25.3181C30.3338 25.3181 30.3783 25.3101 30.4148 25.2938C30.4516 25.277 30.4796 25.2544 30.4989 25.2259C30.5185 25.1968 30.5283 25.1641 30.5283 25.1281C30.5283 25.0961 30.5231 25.0685 30.5126 25.045C30.5024 25.0212 30.4873 25.0017 30.4672 24.9864C30.4475 24.9712 30.423 24.96 30.3933 24.9529C30.3639 24.9453 30.3299 24.9415 30.2911 24.9415H30.1719V24.855ZM31.237 24.4668L30.8905 25.4153H30.749L31.1479 24.3746H31.2392L31.237 24.4668ZM31.5274 25.4153L31.1802 24.4668L31.178 24.3746H31.2693L31.6697 25.4153H31.5274ZM31.5094 25.0301V25.143H30.9216V25.0301H31.5094ZM32.7176 25.2995L32.7046 25.6662H32.5803V25.4153H32.4775V25.2995H32.7176ZM31.8142 25.4153V24.3746H31.9535V25.303H32.4689V24.3746H32.6076V25.4153H31.8142ZM33.0309 25.1765L33.5463 24.3746H33.685V25.4153H33.5463V24.6126L33.0309 25.4153H32.8929V24.3746H33.0309V25.1765ZM34.518 25.0101H34.2241L34.1557 24.9821C34.0801 24.9583 34.0219 24.9218 33.9812 24.8728C33.9405 24.8233 33.92 24.7618 33.92 24.6884C33.92 24.6212 33.9349 24.5642 33.9646 24.5176C33.9948 24.4708 34.0374 24.4353 34.0925 24.411C34.148 24.3868 34.2138 24.3746 34.2895 24.3746H34.6243V25.4153H34.4858V24.4875H34.2895C34.2129 24.4875 34.1551 24.5057 34.1162 24.5419C34.0779 24.5781 34.0587 24.6268 34.0587 24.6884C34.0587 24.7285 34.0672 24.7642 34.084 24.7955C34.1012 24.8271 34.1265 24.8518 34.1601 24.8699C34.1936 24.8881 34.2353 24.8972 34.2851 24.8972H34.5188L34.518 25.0101ZM34.2823 24.9385L34.0279 25.4153H33.8805L34.1422 24.9385H34.2823Z" fill="white"/>
<path d="M32.6257 28.0703C32.4804 32.7589 25.779 34.7808 24.0362 35.3037C22.2934 35.8266 22.0029 34.9376 22.0029 34.6413C22.0029 34.3451 20.9515 31.9904 20.91 31.2409C20.8685 30.4915 20.2326 29.7227 19.8765 29.2729C19.5682 28.8835 19.2642 29.0289 19.3264 29.2729C19.3886 29.5169 20.2393 30.6673 20.3846 30.9461C20.5299 31.2251 20.5506 33.9616 20.4883 34.4496C20.4261 34.9376 20.333 35.0074 19.8765 34.9376C19.4201 34.868 16.3079 33.003 15.0839 32.0792C13.8597 31.1553 12.8928 28.9687 12.9593 28.7731C13.0125 28.6169 16.2835 28.4475 17.9123 28.3823C16.1792 28.2519 12.6484 28.0694 12.3904 28.3823C12.0678 28.7731 12.9593 31.5359 10.3594 31.6953M32.6257 28.0703C30.9313 28.0703 27.4513 28.0703 27.0862 28.0703C26.6297 28.0703 26.028 28.2736 26.0487 28.5234C26.0695 28.7731 25.8827 29.5169 24.2229 30.1792C24.1053 30.2083 23.8743 30.4024 23.891 30.9461C23.9076 31.49 24.1192 33.4155 24.2229 34.3102C24.2368 34.5833 24.4884 35.0318 25.3848 34.6413C26.5052 34.1532 30.9037 32.358 32.6257 28.0703Z" stroke="white" stroke-width="0.5"/>
<path d="M26.199 18.7199C27.4738 18.7139 30.2743 18.7128 31.277 18.7557C31.7696 18.7767 32.0424 18.6326 32.1832 18.4419M26.199 18.7199C26.0382 18.3219 25.4322 17.308 24.2944 16.4355C22.8722 15.3449 22.712 15.72 22.9253 14.4948C23.1385 13.2695 22.8156 11.4136 24.2817 11.7C25.7477 11.9864 30.8596 14.3236 32.6536 18.3313C32.7664 18.5366 33.0503 18.7961 33.2845 18.1917C33.5775 17.4362 31.7183 15.7573 34.9231 15.0077M26.199 18.7199C28.0368 18.664 31.8069 18.5304 32.1832 18.4419M20.4247 13.1295C20.4793 13.9429 20.566 15.1952 20.51 15.9593C20.4256 17.114 19.1183 17.6236 18.7966 17.9432C18.7046 18.0346 18.6921 18.1396 18.7328 18.2664M20.4247 13.1295C20.3968 12.7135 20.3774 12.4124 20.3896 12.3501C20.4262 12.166 20.5814 11.6704 21.3465 11.7243C22.1117 11.7781 27.8854 11.7824 32.2929 17.8306C32.3332 17.9966 32.3292 18.2444 32.1832 18.4419M20.4247 13.1295C20.2791 12.8435 19.9198 12.2583 19.6475 12.2051C19.3071 12.1386 18.0009 12.04 17.288 12.5168C16.5751 12.9935 12.4605 15.1804 12.5202 18.011M12.5202 18.011C12.5721 18.2665 12.779 18.7597 13.1904 18.6878C13.7045 18.5979 18.2721 18.1259 18.7328 18.2664M12.5202 18.011C12.5881 18.4322 16.6903 18.3568 18.7328 18.2664" stroke="white" stroke-width="0.5"/>
</svg>
